<svg id="deezer" xmlns="http://www.w3.org/2000/svg" width="20.973" height="11.703" viewBox="0 0 20.973 11.703">
  <g id="Group_177" data-name="Group 177" transform="translate(0 0)">
    <rect id="Rectangle_56" data-name="Rectangle 56" width="3.823" height="1.159" transform="translate(0 10.544)" fill="#f2321b"/>
    <rect id="Rectangle_57" data-name="Rectangle 57" width="3.823" height="1.159" transform="translate(0 9.038)" fill="#f2321b"/>
    <rect id="Rectangle_58" data-name="Rectangle 58" width="3.823" height="1.159" transform="translate(0 7.532)" fill="#f2321b"/>
    <rect id="Rectangle_59" data-name="Rectangle 59" width="3.823" height="1.159" transform="translate(0 6.026)" fill="#f2321b"/>
    <rect id="Rectangle_60" data-name="Rectangle 60" width="3.823" height="1.158" transform="translate(0 4.52)" fill="#f2321b"/>
    <rect id="Rectangle_61" data-name="Rectangle 61" width="3.824" height="1.159" transform="translate(4.287 10.544)" fill="#f2321b"/>
    <rect id="Rectangle_62" data-name="Rectangle 62" width="3.824" height="1.159" transform="translate(4.287 9.038)" fill="#f2321b"/>
    <rect id="Rectangle_63" data-name="Rectangle 63" width="3.824" height="1.159" transform="translate(4.287 7.532)" fill="#f2321b"/>
    <rect id="Rectangle_64" data-name="Rectangle 64" width="3.824" height="1.159" transform="translate(8.574 10.544)" fill="#f2321b"/>
    <rect id="Rectangle_65" data-name="Rectangle 65" width="3.824" height="1.159" transform="translate(8.574 9.038)" fill="#f2321b"/>
    <rect id="Rectangle_66" data-name="Rectangle 66" width="3.824" height="1.159" transform="translate(8.574 7.532)" fill="#f2321b"/>
    <rect id="Rectangle_67" data-name="Rectangle 67" width="3.824" height="1.159" transform="translate(8.574 6.026)" fill="#f2321b"/>
    <rect id="Rectangle_68" data-name="Rectangle 68" width="3.824" height="1.158" transform="translate(8.574 4.52)" fill="#f2321b"/>
    <rect id="Rectangle_69" data-name="Rectangle 69" width="3.824" height="1.159" transform="translate(8.574 3.013)" fill="#f2321b"/>
    <rect id="Rectangle_70" data-name="Rectangle 70" width="3.824" height="1.159" transform="translate(8.574 1.507)" fill="#f2321b"/>
    <rect id="Rectangle_71" data-name="Rectangle 71" width="3.824" height="1.159" transform="translate(12.861 10.544)" fill="#f2321b"/>
    <rect id="Rectangle_72" data-name="Rectangle 72" width="3.824" height="1.159" transform="translate(12.861 9.038)" fill="#f2321b"/>
    <rect id="Rectangle_73" data-name="Rectangle 73" width="3.824" height="1.159" transform="translate(12.861 7.532)" fill="#f2321b"/>
    <rect id="Rectangle_74" data-name="Rectangle 74" width="3.824" height="1.159" transform="translate(12.861 6.026)" fill="#f2321b"/>
    <rect id="Rectangle_75" data-name="Rectangle 75" width="3.824" height="1.158" transform="translate(12.861 4.52)" fill="#f2321b"/>
    <rect id="Rectangle_76" data-name="Rectangle 76" width="3.824" height="1.159" transform="translate(17.149 10.544)" fill="#f2321b"/>
    <rect id="Rectangle_77" data-name="Rectangle 77" width="3.824" height="1.159" transform="translate(17.149 9.038)" fill="#f2321b"/>
    <rect id="Rectangle_78" data-name="Rectangle 78" width="3.824" height="1.159" transform="translate(17.149 7.532)" fill="#f2321b"/>
    <rect id="Rectangle_79" data-name="Rectangle 79" width="3.824" height="1.159" transform="translate(17.149 6.026)" fill="#f2321b"/>
    <rect id="Rectangle_80" data-name="Rectangle 80" width="3.824" height="1.159" transform="translate(17.149 4.519)" fill="#f2321b"/>
    <rect id="Rectangle_81" data-name="Rectangle 81" width="3.824" height="1.158" transform="translate(17.149 3.013)" fill="#f2321b"/>
    <rect id="Rectangle_82" data-name="Rectangle 82" width="3.824" height="1.158" transform="translate(17.149 1.507)" fill="#f2321b"/>
    <rect id="Rectangle_83" data-name="Rectangle 83" width="3.824" height="1.159" transform="translate(17.149)" fill="#f2321b"/>
  </g>
</svg>
