<svg id="soundcloud" xmlns="http://www.w3.org/2000/svg" width="5.144" height="2.894" viewBox="0 0 5.144 2.894">
  <path id="Path_62" data-name="Path 62" d="M13.768,6.286A.818.818,0,0,0,13.6,6.3,1.449,1.449,0,0,0,12.161,5,.161.161,0,0,0,12,5.161V7.733a.161.161,0,0,0,.161.161h1.608a.8.8,0,0,0,0-1.608Z" transform="translate(-9.428 -5)" fill="#f2321b"/>
  <path id="Path_63" data-name="Path 63" d="M9,6.661V8.911a.161.161,0,0,0,.322,0V6.661a.161.161,0,0,0-.322,0Z" transform="translate(-7.071 -6.178)" fill="#f2321b"/>
  <path id="Path_64" data-name="Path 64" d="M6,9.661v1.608a.161.161,0,0,0,.322,0V9.661a.161.161,0,0,0-.322,0Z" transform="translate(-4.714 -8.535)" fill="#f2321b"/>
  <path id="Path_65" data-name="Path 65" d="M3,11.268a.161.161,0,1,0,.322,0V9.661a.161.161,0,1,0-.322,0Z" transform="translate(-2.357 -8.535)" fill="#f2321b"/>
  <path id="Path_66" data-name="Path 66" d="M.161,13.786a.161.161,0,0,0,.161-.161v-.965a.161.161,0,0,0-.322,0v.965A.161.161,0,0,0,.161,13.786Z" transform="translate(0 -10.892)" fill="#f2321b"/>
</svg>
