<svg id="instagram" xmlns="http://www.w3.org/2000/svg" width="109.742" height="109.742" viewBox="0 0 109.742 109.742">
  <g id="Group_180" data-name="Group 180">
    <g id="Group_179" data-name="Group 179">
      <path id="Path_46" data-name="Path 46" d="M75.447,0H34.294A34.3,34.3,0,0,0,0,34.294V75.447a34.3,34.3,0,0,0,34.294,34.294H75.447a34.3,34.3,0,0,0,34.294-34.294V34.294A34.3,34.3,0,0,0,75.447,0ZM99.453,75.447A24.032,24.032,0,0,1,75.447,99.453H34.294A24.032,24.032,0,0,1,10.288,75.447V34.294A24.032,24.032,0,0,1,34.294,10.288H75.447A24.032,24.032,0,0,1,99.453,34.294Z" fill="#f2321b"/>
    </g>
  </g>
  <g id="Group_182" data-name="Group 182" transform="translate(27.435 27.435)">
    <g id="Group_181" data-name="Group 181">
      <path id="Path_47" data-name="Path 47" d="M155.435,128a27.435,27.435,0,1,0,27.435,27.435A27.437,27.437,0,0,0,155.435,128Zm0,44.583a17.147,17.147,0,1,1,17.147-17.147A17.171,17.171,0,0,1,155.435,172.583Z" transform="translate(-128 -128)" fill="#f2321b"/>
    </g>
  </g>
  <g id="Group_184" data-name="Group 184" transform="translate(80.708 21.722)">
    <g id="Group_183" data-name="Group 183">
      <ellipse id="Ellipse_2" data-name="Ellipse 2" cx="3.656" cy="3.656" rx="3.656" ry="3.656" fill="#f2321b"/>
    </g>
  </g>
</svg>
